#!OML:ASF Y:\EmotionMaleHayes\Project 1\Capture day 1\Session 1\Male1.ASF
:FULLY-SPECIFIED
:DEGREES
2217
root 19.0629 17.489 -16.3669 933.786 -84.966 863.109
lowerback 5.08301 2.0439 -7.34504
upperback 4.66902 2.33562 -1.43397
thorax 1.75687 0.929629 2.53824
lowerneck -25.1679 3.59998 6.40425
upperneck 25.2488 3.97 -5.08086
head 12.8582 1.61084 -2.32675
rclavicle 1.65985e-014 -1.63003e-014
rhumerus 42.0766 16.3175 -34.8962
rradius 38.1801
rwrist 0.0371877
rhand -6.58996 -29.1719
rfingers 7.12502
rthumb 19.2651 -58.2377
lclavicle 1.65985e-014 -1.63003e-014
lhumerus 34.0722 -11.1838 36.7921
lradius 35.0555
lwrist 2.05241
lhand -17.3709 -25.4874
lfingers 7.12502
lthumb 8.87744 4.3059
rfemur 6.89624 -0.257969 3.7798
rtibia 27.7415
rfoot -12.1739 -4.64549
rtoes -2.84331
lfemur 3.67925 0.59187 -22.5613
ltibia 14.848
lfoot -16.0845 12.4309
ltoes -0.516999
2218
root 18.9721 17.493 -16.3893 936.989 -85.5203 859.943
lowerback 5.2826 1.93961 -7.45019
upperback 4.54542 2.1705 -1.47827
thorax 1.5316 0.856681 2.55037
lowerneck -24.8896 3.49972 6.62293
upperneck 25.0574 3.83261 -5.34588
head 12.7281 1.53874 -2.48986
rclavicle 7.65321e-015 -7.15625e-015
rhumerus 41.8264 15.9081 -35.0899
rradius 38.2443
rwrist -0.0873528
rhand -6.79196 -28.9309
rfingers 7.12502
rthumb 19.0709 -58.0159
lclavicle 7.65321e-015 -7.15625e-015
lhumerus 34.0196 -11.3243 36.4208
lradius 35.4013
lwrist 2.58677
lhand -17.4262 -25.3737
lfingers 7.12502
lthumb 8.82408 4.42179
rfemur 6.10747 -0.0411479 4.28479
rtibia 27.1311
rfoot -12.9606 -5.28107
rtoes -4.57781
lfemur 4.02719 0.337265 -22.3671
ltibia 14.6289
lfoot -16.0588 12.2227
ltoes -0.905156
2219
root 18.8785 17.4934 -16.4116 940.029 -86.0156 856.871
lowerback 5.47083 1.85486 -7.53451
upperback 4.57294 2.0351 -1.50532
thorax 1.46764 0.787571 2.57068
lowerneck -25.558 3.51619 6.6424
upperneck 25.4157 3.77154 -5.19687
head 12.9972 1.52734 -2.45073
rclavicle 2.28602e-015 3.97569e-015
rhumerus 42.0365 15.2989 -35.5098
rradius 38.0052
rwrist 0.0626187
rhand -6.98448 -29.0762
rfingers 7.12502
rthumb 18.8858 -58.1794
lclavicle 2.28602e-015 3.97569e-015
lhumerus 34.0916 -11.363 35.8868
lradius 35.7228
lwrist 3.28225
lhand -17.5289 -25.118
lfingers 7.12502
lthumb 8.72499 4.68166
rfemur 5.32514 0.297608 4.79397
rtibia 26.5567
rfoot -13.2959 -5.79405
rtoes -5.16592
lfemur 4.54527 -0.0813627 -22.164
ltibia 14.3302
lfoot -16.3469 11.8537
ltoes 0.745031
2220
root 18.7776 17.4951 -16.4277 946.288 -86.3074 850.587
lowerback 5.44467 1.7599 -7.83198
upperback 4.436 1.89694 -1.54009
thorax 1.34782 0.721291 2.70574
lowerneck -24.9917 3.57047 6.67812
upperneck 25.4194 3.85691 -5.17161
head 12.8936 1.57607 -2.43338
rclavicle 4.17448e-015 -4.45278e-014
rhumerus 42.0149 15.1907 -35.6097
rradius 37.9453
rwrist -0.0630084
rhand -7.02854 -29.5519
rfingers 7.12502
rthumb 18.8434 -58.6592
lclavicle 4.17448e-015 -4.45278e-014
lhumerus 34.0384 -11.3291 36.0447
lradius 35.6779
lwrist 3.39028
lhand -17.6196 -25.0965
lfingers 7.12502
lthumb 8.63747 4.70681
rfemur 4.52228 0.524779 4.88877
rtibia 26.0408
rfoot -13.7818 -5.99667
rtoes -5.74144
lfemur 5.09441 -0.53622 -22.3316
ltibia 14.0044
lfoot -16.4099 11.5856
ltoes 1.27193
2221
root 18.6808 17.4936 -16.4463 952.445 -86.662 844.41
lowerback 5.45719 1.71371 -7.9827
upperback 4.52013 1.83038 -1.52271
thorax 1.43207 0.677921 2.81135
lowerneck -25.194 3.72503 6.60573
upperneck 25.571 4.08012 -5.11043
head 13.0083 1.67258 -2.35756
rclavicle -1.20265e-014 3.89618e-014
rhumerus 42.2612 14.6945 -35.4455
rradius 37.7975
rwrist -0.268733
rhand -6.99273 -29.8393
rfingers 7.12502
rthumb 18.8778 -58.9432
lclavicle -1.20265e-014 3.89618e-014
lhumerus 34.406 -10.8543 36.4044
lradius 35.5549
lwrist 3.24889
lhand -17.6121 -25.351
lfingers 7.12502
lthumb 8.64464 4.45201
rfemur 3.72631 0.837678 5.17945
rtibia 25.5078
rfoot -14.5653 -6.00908
rtoes -6.12652
lfemur 5.52944 -0.806685 -22.3074
ltibia 13.7788
lfoot -16.6956 11.4683
ltoes 1.49089
2222
root 18.578 17.4885 -16.4609 961.309 -86.7529 835.502
lowerback 5.47069 1.66655 -8.26351
upperback 4.5418 1.75343 -1.62373
thorax 1.45316 0.631091 2.86614
lowerneck -25.2998 3.67944 6.57763
upperneck 25.5858 4.02892 -5.13441
head 13.0314 1.64306 -2.37163
rclavicle -1.49089e-015 -1.35174e-014
rhumerus 42.4559 14.3835 -35.4974
rradius 37.6075
rwrist -0.419514
rhand -7.0303 -30.208
rfingers 7.12502
rthumb 18.8417 -59.3155
lclavicle -1.49089e-015 -1.35174e-014
lhumerus 34.4567 -10.9607 36.0435
lradius 35.8741
lwrist 3.81947
lhand -17.6928 -25.342
lfingers 7.12502
lthumb 8.56677 4.46424
rfemur 3.10482 1.07031 5.08269
rtibia 24.7315
rfoot -15.2006 -5.86928
rtoes -7.43706
lfemur 6.03738 -1.12177 -22.6298
ltibia 13.5223
lfoot -16.8226 11.5858
ltoes 0.40465
2223
root 18.4717 17.4823 -16.4733 972.848 -86.5758 823.93
lowerback 5.44405 1.6172 -8.74155
upperback 4.57724 1.66951 -1.75633
thorax 1.51009 0.573683 2.99862
lowerneck -25.4907 3.65398 6.44214
upperneck 25.7434 4.02737 -5.09323
head 13.1291 1.63156 -2.33519
rclavicle 2.38542e-015 -2.46493e-014
rhumerus 42.5319 14.1748 -35.344
rradius 37.6609
rwrist -0.823079
rhand -7.27271 -30.7462
rfingers 7.12502
rthumb 18.6085 -59.8762
lclavicle 2.38542e-015 -2.46493e-014
lhumerus 34.4101 -11.4003 35.3412
lradius 36.4954
lwrist 4.832
lhand -17.9345 -25.0576
lfingers 7.12502
lthumb 8.33359 4.75805
rfemur 2.53781 1.04984 4.58666
rtibia 23.8726
rfoot -15.0052 -6.02372
rtoes -7.79998
lfemur 6.61445 -1.60055 -23.2627
ltibia 13.1533
lfoot -17.0086 11.6486
ltoes 0.112488
2224
root 18.3669 17.475 -16.4873 982.134 -86.3276 814.607
lowerback 5.38621 1.61324 -9.14527
upperback 4.6001 1.6536 -1.85385
thorax 1.56456 0.55247 3.12316
lowerneck -25.3809 3.59277 6.25333
upperneck 25.7579 4.02582 -5.10174
head 13.1085 1.61095 -2.30819
rclavicle -8.05078e-015 7.95139e-015
rhumerus 42.593 13.9059 -35.1659
rradius 37.5939
rwrist -1.14067
rhand -7.41564 -30.641
rfingers 7.12502
rthumb 18.471 -59.7841
lclavicle -8.05078e-015 7.95139e-015
lhumerus 34.4592 -11.4828 35.3243
lradius 36.7876
lwrist 5.03614
lhand -18.0549 -24.9407
lfingers 7.12502
lthumb 8.21738 4.87947
rfemur 1.76885 1.1015 4.17973
rtibia 23.3586
rfoot -14.8768 -6.10512
rtoes -7.79978
lfemur 7.23218 -2.02949 -23.7957
ltibia 12.7038
lfoot -17.117 11.71
ltoes -0.319455
2225
root 18.2639 17.4681 -16.5038 989.065 -86.1478 807.595
lowerback 5.48634 1.63799 -9.36357
upperback 4.50662 1.65985 -1.95682
thorax 1.40929 0.560586 3.13363
lowerneck -25.0594 3.58814 6.36169
upperneck 25.8296 4.03759 -5.24757
head 13.0813 1.60818 -2.38489
rclavicle 5.36719e-015 -2.62396e-014
rhumerus 42.4752 13.602 -35.4121
rradius 37.3573
rwrist -0.948165
rhand -7.45394 -30.3064
rfingers 7.12502
rthumb 18.4342 -59.4529
lclavicle 5.36719e-015 -2.62396e-014
lhumerus 34.5245 -11.358 35.7866
lradius 36.7322
lwrist 4.60569
lhand -17.9736 -24.989
lfingers 7.12502
lthumb 8.29584 4.8281
rfemur 1.00917 1.43272 4.03562
rtibia 22.8629
rfoot -15.2902 -5.61722
rtoes -7.61723
lfemur 7.88132 -2.37916 -24.0885
ltibia 12.2868
lfoot -17.1977 11.7873
ltoes -0.882234
